<?xml version="1.0" encoding="UTF-8"?>
<svg id="Layer_1" data-name="Layer 1" xmlns="http://www.w3.org/2000/svg" viewBox="0 0 1688.46 1898.35">
  <path d="m1644.61,1341.33l-207.36-119.72,206.76-55.4c31.98-8.57,50.96-41.44,42.39-73.42h0c-8.57-31.98-41.44-50.96-73.42-42.39l-322.57,86.43-325.03-187.66,325.03-187.66,322.57,86.43c31.98,8.57,64.85-10.41,73.42-42.39h0c8.57-31.98-10.41-64.85-42.39-73.42l-206.76-55.4,207.36-119.72c28.67-16.55,38.5-53.22,21.94-81.89h0c-16.55-28.67-53.22-38.5-81.89-21.94l-208.45,120.35,55.86-208.48c8.57-31.98-10.41-64.85-42.39-73.42-31.98-8.57-64.85,10.41-73.42,42.39l-86.89,324.29-325.83,188.12v-376.23l237.4-237.4c23.41-23.41,23.41-61.37,0-84.78h0c-23.41-23.41-61.37-23.41-84.78,0l-152.62,152.62V59.95c0-33.11-26.84-59.95-59.95-59.95h0c-33.11,0-59.95,26.84-59.95,59.95v239.43l-151.36-151.36c-23.41-23.41-61.37-23.41-84.78,0h0c-23.41,23.41-23.41,61.37,0,84.78l236.14,236.14v375.31l-325.03-187.66-86.43-322.57c-8.57-31.98-41.44-50.96-73.42-42.39h0c-31.98,8.57-50.96,41.44-42.39,73.42l55.4,206.76-207.36-119.72c-28.67-16.55-65.34-6.73-81.89,21.94h0c-16.55,28.67-6.73,65.34,21.94,81.89l208.45,120.35-208.48,55.86c-31.98,8.57-50.96,41.44-42.39,73.42,8.57,31.98,41.44,50.96,73.42,42.39l324.29-86.89,325.83,188.12-325.83,188.12-324.29-86.89c-31.98-8.57-64.85,10.41-73.42,42.39h0c-8.57,31.98,10.41,64.85,42.39,73.42l208.48,55.86-208.45,120.35c-28.67,16.55-38.5,53.22-21.94,81.89h0c16.55,28.67,53.22,38.5,81.89,21.94l207.36-119.72-55.4,206.76c-8.57,31.98,10.41,64.85,42.39,73.42h0c31.98,8.57,64.85-10.41,73.42-42.39l86.43-322.57,325.03-187.66v375.31l-236.14,236.14c-23.41,23.41-23.41,61.37,0,84.78h0c23.41,23.41,61.37,23.41,84.78,0l151.36-151.36v239.43c0,33.11,26.84,59.95,59.95,59.95h0c33.11,0,59.95-26.84,59.95-59.95v-240.69l152.62,152.62c23.41,23.41,61.37,23.41,84.78,0,23.41-23.41,23.41-61.37,0-84.78l-237.4-237.4v-376.23l325.83,188.12,86.89,324.29c8.57,31.98,41.44,50.96,73.42,42.39h0c31.98-8.57,50.96-41.44,42.39-73.42l-55.86-208.48,208.45,120.35c28.67,16.55,65.34,6.73,81.89-21.94h0c16.55-28.67,6.73-65.34-21.94-81.89Z" fill="#fff" stroke-width="0"/>
</svg>