<?xml version="1.0" encoding="UTF-8"?><svg id="Layer_1" xmlns="http://www.w3.org/2000/svg" viewBox="0 0 473.19 778.93"><defs><style>.cls-1{stroke-width:4px;}.cls-1,.cls-2{fill:none;stroke:#000;stroke-miterlimit:10;}.cls-3{letter-spacing:.73em;}.cls-2{stroke-width:2px;}.cls-4{font-family:Rockwell, Rockwell;font-size:43.39px;}.cls-5{letter-spacing:.65em;}</style></defs><polygon points="37.81 577.59 42.23 573.44 126.52 677.08 126.52 683.16 124.04 683.16 37.81 577.59"/><rect x="22.05" y="553.26" width="5.25" height="128.24"/><polygon points="145.6 553.26 145.6 683.16 149.74 683.16 150.16 557.48 150.92 557.55 150.77 553.26 145.6 553.26"/><path d="m145.6,683.16v-4.73c-1.99-.49-5.78-1.71-9.26-4.97-1.19-1.11-3.31-3.15-4.56-6.43-.96-2.52-.81-4.2-.73-10.75.04-2.92-.01-5.84.03-8.77.08-4.74-.18-10.18-.69-20.87-.46-9.62-.7-14.44-.83-15.62-.76-6.75-1.88-16.68-7.32-27.43-2.65-5.23-7.21-13.86-17-20.8-9.22-6.53-17.62-8.5-23.63-8.84-4.93-.28-8.57-.39-11.73-.41-11.63-.08-15.97.26-25.83.22-3.9-.02-9.67-.11-16.76-.5v42.42c1.97-5.27,6.31-14.57,15.57-22.59,13.56-11.74,28.82-13.1,33.35-13.44,4.73-.35,8.69-.06,11.44.28,3.93.91,7.06,2.55,8.9,3.52,1.29.68,3.68,2.01,6.4,4.08.85.64,4.41,3.4,8.23,8.03,7.42,9.01,10.74,18.99,11.33,20.81,2.28,7.05,2.64,12.38,3.35,23.03.17,2.47.28,8.94.52,21.89.09,4.91.14,8.86.18,13.12.03,4.29.03,7.46.03,11.27,0,4.51-.02,10.44-.07,17.48h19.07Z"/><rect x="429.72" y="560.56" width="7.46" height="74.05"/><polygon points="437.18 689.52 437.18 634.61 429.72 634.61 428.34 689.52 437.18 689.52"/><path d="m327.69,559.54l.7,69.56c-1.42-.01-2.83-.03-4.25-.04-.18-23.17-.36-46.34-.54-69.52h4.08Z"/><path d="m324.14,629.05c1.42.01,2.83.03,4.25.04.04,2.51.24,5.89.94,9.81,1.73,9.74,5.45,16.83,7.46,20.24,2.03,3.45,5.95,9.97,13.47,15.86,3.14,2.46,11.49,8.82,24.05,10.36,16.9,2.09,29.58-6.12,33.44-8.71,10.86-7.26,15.76-16.62,16.86-18.79,3.44-6.8,4.56-13.06,4.96-17.07-.41,16.24-.82,32.48-1.23,48.72-9.67.4-31.09,1.13-51.34.21-3.55-.16-9.17-.47-15.86-3.01-9.77-3.7-15.73-9.84-18.48-12.68-15.54-16-18.02-38.93-18.52-44.99Z"/><text class="cls-4" transform="translate(13.73 767.06)"><tspan class="cls-3" x="0" y="0">AP</tspan><tspan class="cls-5" x="118.52" y="0">P</tspan><tspan class="cls-3" x="171.81" y="0">ARELS</tspan></text><rect x="307.19" y="559.54" width="16.42" height="3.22"/><path d="m216.89,214.38c1.25,2.92,2.53,6.51,3.49,10.71,1.14,5.02,1.5,9.5,1.54,13.1,3.19-.09,7.83-.56,13.11-2.33,2.87-.96,9.76-3.61,16.56-9.83,2.19-2.01,7.41-6.89,10.87-15.01,3.18-7.47,3.18-13.77,3.11-21.22-.04-4.05-.44-14.42-5.01-27.96-4.31-12.79-11.56-26.09-13.62-25.35-2.77.99,10.41,25.06.73,47.87-4.3,10.14-12.12,17.53-13.51,18.83-6.43,6-12.93,9.36-17.27,11.19Z"/><path d="m223.1,245.55c5.07-.77,12.59-2.38,21.01-6.14,10.55-4.71,15.29-9.58,17.51-7.87,3.28,2.52-2.98,16.2-6.31,22.25-3.23,5.87-6.82,10.26-8.97,12.89-2.44,2.98-4.77,5.8-8.51,8.93-3.15,2.64-5.85,4.29-8.92,6.16-3.62,2.21-5.98,3.66-9.35,4.95-2.68,1.03-9.95,3.87-11.34,1.93-1.16-1.63,3.02-4.87,7.34-13.19,3.57-6.86,4.93-12.98,5.79-16.9,1.14-5.19,1.58-9.67,1.74-13Z"/><path d="m197.88,191.01c2.49,1.85,5.27,4.19,8.09,7.13,3.66,3.81,6.36,7.57,8.33,10.75,5.39-3.07,22.34-13.67,26.81-32.93,7.22-31.12-24.27-58.54-26.64-60.55-.75-.64-1.48-1.22-1.65-1.35-14.98-11.89-32.92-16.58-34.48-13.83-1.29,2.28,10.4,6.68,19.58,21.29,9.7,15.43,9.87,31.46,9.62,37.46-.63,15.29-6.37,26.56-9.67,32.04Z"/><path d="m191.8,187.78c-3.34-2.28-8.16-5.08-14.41-7.18-6.36-2.14-11.99-2.82-16.08-3,.75-4.13,1.4-10.56-.1-18.08-2.78-13.93-11.14-22.71-14.75-26.4-17.63-18.02-38.48-17.63-38.04-22.51.41-4.61,19.25-7.91,35.71-6.21,8.26.85,21.5,2.22,34.16,12.42,14.62,11.78,18.56,27.3,19.41,31.05,4.59,20.22-3.77,36.11-5.9,39.91Z"/><path d="m155.56,176.78c-4.94.48-10.6,1.34-16.78,2.87-5.96,1.47-11.22,3.25-15.69,5.05-2.26-3.67-6.05-8.93-11.98-13.88-12.31-10.26-25.72-12.44-31.05-13.2-24.26-3.43-39.09,7.07-41.92,2.33-2.63-4.4,8.35-16.41,17.86-23.29,14.89-10.77,30.68-12.21,37.27-12.42,7.56-.24,25.84-.81,41.92,12.42,17.9,14.72,20.04,35.8,20.39,40.12Z"/><path d="m118.63,188.3c-3.52,2.61-7.54,6.01-11.6,10.36-4.6,4.93-8.02,9.74-10.53,13.83-3.64-2.3-8.34-4.71-14.08-6.42-16.03-4.77-30.05-1.04-36.38,1.11-27.04,9.1-37.99,28.65-42.77,25.47-4.28-2.85,1.26-20.7,9.62-33.36,1.87-2.84,10.61-15.59,27.87-24.1,6.43-3.17,21.1-10.15,40.29-7.22,20.81,3.18,33.61,16,37.58,20.32Z"/><path d="m92.88,218.08c-1.72,3.58-3.55,8.21-4.87,13.76-1.51,6.39-1.88,12.02-1.84,16.37-4.29-.47-10.45-.73-17.67.48-15.33,2.56-25.53,10.02-30.16,13.51-15.68,11.82-22.28,26.35-23.47,29.06-6.28,14.29-4.9,24.68-7.36,24.79-3.1.14-8.43-16.2-7.38-33.12.22-3.63,1.54-20.16,13.19-37.09,3.85-5.6,13.25-18.89,31.29-26.36,22.16-9.18,42.34-3.36,48.26-1.41Z"/><path d="m85.35,256.01c-.04,5.2.38,11.79,2.04,19.22,1.38,6.18,3.28,11.42,5.12,15.62-3.2,1.45-7.57,3.59-12.54,6.53h0s-15.51,9.48-25.4,21.17c-9.09,10.76-12.33,22.09-14.44,29.49-5.87,20.57-2.25,33.89-4.94,34.37-3.55.63-12.61-22.01-14.53-47.21-.68-8.97-1.26-16.54,1.02-26.4,1.46-6.28,7.74-29.39,30.29-43.19,13.1-8.02,26.05-9.44,33.37-9.6Z"/><path d="m95.11,297.27c1.84,3.95,4.72,9.08,9.15,14.36,4.23,5.03,8.55,8.63,11.99,11.09-1.74,2.02-4.06,5.01-6.28,8.94-1.96,3.48-4.25,8.41-6.55,18.42-1.56,6.8-3.49,15.2-3.55,26.47-.02,4.7.23,19.01,6.55,36.71,8.66,24.24,21.04,33.38,18.83,35.75-3.38,3.63-35.99-14.01-54.85-45.44-7.13-11.88-9.84-21.62-10.5-24.11-2.45-9.22-8.72-32.85,3.99-55.23,9.34-16.46,24.28-24.02,31.21-26.96Z"/><path d="m123.14,327.04c4.1,2.57,9.27,5.34,15.5,7.72,7.86,3,14.99,4.44,20.6,5.15-1.41,9.91-1.07,18.3-.41,24.36.64,5.81,1.75,15.22,6.75,26.2,3.93,8.61,8.45,14.22,12.49,19.24,2.43,3.02,9.33,11.28,19.04,18.83,22.8,17.73,43.55,17.89,43.19,21.08-.56,4.94-51.25,12.9-89.65-12.28-14.56-9.54-21.82-20.22-23.33-22.52-10.02-15.13-11.68-29.88-12.49-37.87-2.26-22.51,4.11-40.51,8.32-49.92Z"/><path d="m166.74,340.12c5.81.04,13.11-.45,21.29-2.32,5.62-1.28,10.51-2.96,14.61-4.65,2.94,8.19,8.72,21.12,20.05,33.99,3.48,3.95,13.8,15.08,30.84,24.02,4.66,2.44,26.35,13.4,55.95,12.83,17.78-.34,26.1-4.61,26.82-2.76,1.58,4.04-33.97,35.67-80.31,31.96-41.82-3.35-65.71-33.32-69.05-37.66-17.27-22.44-19.72-46.15-20.2-55.4Z"/><path d="m209.91,330.15c3.61-1.97,7.48-4.31,11.49-7.09,5.18-3.59,9.62-7.23,13.37-10.64,1.96,1.89,4.92,4.62,8.73,7.64,20.24,16.01,40.78,21.3,49.87,23.54,16.16,3.98,28.97,4.15,32,4.16,20.53.09,36.84-4.78,54.17-10.1,23.03-7.07,32.69-12.96,34.59-10.23,2.65,3.8-13.47,19.85-25.38,29.68-11.62,9.59-26.36,21.75-50.09,28.31-29.46,8.14-53.54,2.34-58.4,1.09-26.2-6.71-42.68-21.17-48.12-26.33-11.57-10.96-18.39-22.35-22.24-30.03Z"/><path d="m241.11,307.57c3.9-4.16,8.12-9.21,12.28-15.21,3.68-5.31,6.64-10.4,9.01-15.01,5.7,1.91,13.63,4.3,23.25,6.37,11.63,2.5,32,6.88,55.96,4.61,39.17-3.71,68.13-23.3,75.12-28.25,15.92-11.27,23.21-21.09,26.61-18.83,4.85,3.22-4.43,27.5-15.97,45.23-5.2,7.99-14.49,21.95-32.2,33.02-15.55,9.72-29.67,12.27-40.94,14.19-43.3,7.38-77.88-7.51-87.95-12.01-10.95-4.89-19.45-10.19-25.18-14.12Z"/><path d="m278.16,234.5c-1.21,5.02-2.67,10.32-4.43,15.83-2.5,7.83-5.25,14.98-8.05,21.42,7.22,1.56,17.88,3.51,30.91,4.5,16.78,1.28,42.81,3.03,71.84-6.55,7.31-2.41,27.15-9.14,43.8-23.33,53.16-45.32,39.48-137.44,32.62-138.49-4.86-.74-4.79,44.55-41.83,82.2-2.95,2.99-17.02,17.01-40.32,28.45-35.27,17.32-68.16,17.18-84.53,15.97Z"/><path d="m403.9.02c-8.29,1.22,7.55,56.42-24.01,104.3-12.49,18.94-28.39,31.06-37.66,38.07-25.24,19.08-50.07,27.93-66.01,32.26,1.76,6.36,3.39,14.19,4.13,23.22.87,10.62.26,19.88-.74,27.2,8.29-.94,19.89-2.75,33.34-6.54,25.86-7.28,75.05-21.15,100.5-65.09,19.13-33.03,15.46-67.06,13.1-89.24C423,30.86,410.24-.91,403.9.02Z"/><ellipse class="cls-1" cx="168.89" cy="62.4" rx="15.69" ry="96.41" transform="translate(102.94 229.93) rotate(-88.79)"/><path d="m119.21,75.62c-.04.36-46.92-8.71-46.7-16.02.22-7.25,46.68-11.51,46.7-11.2,0,.03-.49.22-.96.33-.49.12-.92.13-1.1.14-.66.04-.7,0-1.24.06-.1.01-.1.01-.75.11-.41.06-.69.1-.75.11-.74.11-6.95,1.11-12.22,2.3-1.61.36-2.83.68-3.12.75-1.49.38-2.57.7-3.51.97-2.21.64-2.86.89-3.37,1.09-.84.34-1.41.63-1.97.91-1,.51-1.38.76-1.6.92-.57.41-.96.69-1.37,1.2-.47.58-1.35,1.66-1.49,3.38-.19,2.32,1.13,4.04,1.19,4.12.4.51.93,1.1,1.6,1.6.43.32.77.5,1.28.76.82.42,1.46.67,1.83.8,1.5.56,2.71.94,2.91,1,1.92.6,2.88.9,3.74,1.13,3.5.96,7.83,1.82,9.32,2.12,6.16,1.27,11.6,3.3,11.59,3.43Z"/><path d="m219.3,50.01c.04-.36,46.87,7.18,46.73,14.54-.15,7.31-46.56,13.37-46.66,12.25-.01-.13.63-.39,1.76-.84.94-.38,1.82-.67,2.64-.9,2.64-.73,6.24-1.02,6.24-1.02.26-.02.44-.04.62-.06,1.12-.15,1.94-.33,2.16-.37.7-.16,2.26-.45,6.02-1.03,1.73-.32,3.45-.65,5.18-.97,1.28-.3,2.35-.68,3.14-1.01,1.75-.73,2.59-1.36,2.94-1.65.74-.59,1.22-.99,1.7-1.82.3-.52,1.01-1.77,1.01-3.55,0-2.03-.92-3.39-1.2-3.72-.4-.46-.94-.99-1.61-1.44-.43-.29-.77-.45-1.29-.69-.82-.38-1.47-.61-1.83-.73-1.5-.51-2.71-.85-2.91-.91-1.92-.54-2.89-.81-3.74-1.03-3.5-.87-7.83-1.65-9.32-1.94-6.16-1.16-11.61-3-11.59-3.12Z"/><path d="m230.06,615.08c.38.89.77,1.98,1.06,3.25.35,1.52.46,2.88.47,3.98.97-.03,2.38-.17,3.98-.71.87-.29,2.96-1.09,5.03-2.98.67-.61,2.25-2.09,3.3-4.56.97-2.27.97-4.18.94-6.44-.01-1.23-.13-4.37-1.52-8.48-1.31-3.88-3.51-7.92-4.13-7.69-.84.3,3.16,7.61.22,14.53-1.31,3.08-3.68,5.32-4.1,5.71-1.95,1.82-3.92,2.84-5.24,3.4Z"/><path d="m231.95,624.54c1.54-.23,3.82-.72,6.38-1.86,3.2-1.43,4.64-2.91,5.31-2.39,1,.76-.9,4.92-1.92,6.75-.98,1.78-2.07,3.11-2.72,3.91-.74.91-1.45,1.76-2.58,2.71-.96.8-1.77,1.3-2.71,1.87-1.1.67-1.82,1.11-2.84,1.5-.81.31-3.02,1.17-3.44.58-.35-.49.92-1.48,2.23-4,1.08-2.08,1.49-3.94,1.76-5.13.35-1.57.48-2.93.53-3.94Z"/><path d="m224.29,607.98c.76.56,1.6,1.27,2.46,2.16,1.11,1.16,1.93,2.3,2.53,3.26,1.64-.93,6.78-4.15,8.14-9.99,2.19-9.44-7.37-17.77-8.09-18.38-.23-.19-.45-.37-.5-.41-4.55-3.61-9.99-5.03-10.46-4.2-.39.69,3.16,2.03,5.94,6.46,2.94,4.68,2.99,9.55,2.92,11.37-.19,4.64-1.93,8.06-2.93,9.72Z"/><path d="m222.44,607c-1.01-.69-2.48-1.54-4.37-2.18-1.93-.65-3.64-.85-4.88-.91.23-1.25.42-3.2-.03-5.49-.84-4.23-3.38-6.89-4.48-8.01-5.35-5.47-11.68-5.35-11.55-6.83.13-1.4,5.84-2.4,10.84-1.88,2.51.26,6.52.67,10.37,3.77,4.44,3.57,5.63,8.29,5.89,9.42,1.39,6.14-1.14,10.96-1.79,12.11Z"/><path d="m211.45,603.67c-1.5.15-3.22.41-5.09.87-1.81.45-3.4.99-4.76,1.53-.69-1.11-1.84-2.71-3.64-4.21-3.73-3.11-7.81-3.78-9.42-4.01-7.36-1.04-11.86,2.15-12.72.71-.8-1.33,2.53-4.98,5.42-7.07,4.52-3.27,9.31-3.71,11.31-3.77,2.29-.07,7.84-.25,12.72,3.77,5.43,4.47,6.08,10.86,6.19,12.18Z"/><path d="m200.24,607.16c-1.07.79-2.29,1.83-3.52,3.14-1.4,1.5-2.43,2.96-3.19,4.2-1.1-.7-2.53-1.43-4.27-1.95-4.87-1.45-9.12-.32-11.04.34-8.21,2.76-11.53,8.69-12.98,7.73-1.3-.86.38-6.28,2.92-10.13.57-.86,3.22-4.73,8.46-7.31,1.95-.96,6.4-3.08,12.23-2.19,6.32.97,10.2,4.86,11.4,6.17Z"/><path d="m192.42,616.2c-.52,1.09-1.08,2.49-1.48,4.18-.46,1.94-.57,3.65-.56,4.97-1.3-.14-3.17-.22-5.36.14-4.65.78-7.75,3.04-9.15,4.1-4.76,3.59-6.76,8-7.12,8.82-1.91,4.34-1.49,7.49-2.23,7.52-.94.04-2.56-4.92-2.24-10.05.07-1.1.47-6.12,4-11.26,1.17-1.7,4.02-5.73,9.5-8,6.73-2.79,12.85-1.02,14.65-.43Z"/><path d="m190.14,627.71c-.01,1.58.12,3.58.62,5.83.42,1.88,1,3.47,1.55,4.74-.97.44-2.3,1.09-3.81,1.98h0s-4.71,2.88-7.71,6.43c-2.76,3.26-3.74,6.71-4.38,8.95-1.78,6.24-.68,10.29-1.5,10.43-1.08.19-3.83-6.68-4.41-14.33-.21-2.72-.38-5.02.31-8.01.44-1.91,2.35-8.92,9.19-13.11,3.98-2.43,7.9-2.86,10.13-2.91Z"/><path d="m193.1,640.23c.56,1.2,1.43,2.75,2.78,4.36,1.28,1.53,2.59,2.62,3.64,3.37-.53.61-1.23,1.52-1.9,2.71-.6,1.06-1.29,2.55-1.99,5.59-.47,2.06-1.06,4.61-1.08,8.03,0,1.43.07,5.77,1.99,11.14,2.63,7.36,6.38,10.13,5.71,10.85-1.03,1.1-10.92-4.25-16.65-13.79-2.16-3.6-2.99-6.56-3.19-7.32-.74-2.8-2.65-9.97,1.21-16.76,2.84-4.99,7.37-7.29,9.47-8.18Z"/><path d="m201.61,649.27c1.24.78,2.81,1.62,4.7,2.34,2.39.91,4.55,1.35,6.25,1.56-.43,3.01-.33,5.55-.12,7.39.19,1.76.53,4.62,2.05,7.95,1.19,2.61,2.56,4.32,3.79,5.84.74.92,2.83,3.42,5.78,5.71,6.92,5.38,13.22,5.43,13.11,6.4-.17,1.5-15.55,3.91-27.21-3.73-4.42-2.9-6.62-6.14-7.08-6.83-3.04-4.59-3.55-9.07-3.79-11.49-.69-6.83,1.25-12.29,2.52-15.15Z"/><path d="m214.84,653.24c1.76.01,3.98-.14,6.46-.71,1.7-.39,3.19-.9,4.43-1.41.89,2.49,2.65,6.41,6.08,10.32,1.06,1.2,4.19,4.58,9.36,7.29,1.41.74,8,4.07,16.98,3.89,5.4-.1,7.92-1.4,8.14-.84.48,1.23-10.31,10.83-24.37,9.7-12.69-1.02-19.94-10.11-20.95-11.43-5.24-6.81-5.99-14.01-6.13-16.81Z"/><path d="m227.94,650.21c1.1-.6,2.27-1.31,3.49-2.15,1.57-1.09,2.92-2.19,4.06-3.23.59.57,1.49,1.4,2.65,2.32,6.14,4.86,12.38,6.46,15.14,7.14,4.9,1.21,8.79,1.26,9.71,1.26,6.23.03,11.18-1.45,16.44-3.06,6.99-2.14,9.92-3.93,10.5-3.11.8,1.15-4.09,6.03-7.7,9.01-3.53,2.91-8,6.6-15.2,8.59-8.94,2.47-16.25.71-17.72.33-7.95-2.04-12.95-6.43-14.61-7.99-3.51-3.33-5.58-6.78-6.75-9.11Z"/><path d="m237.41,643.36c1.18-1.26,2.47-2.8,3.73-4.62,1.12-1.61,2.01-3.16,2.73-4.56,1.73.58,4.14,1.31,7.06,1.93,3.53.76,9.71,2.09,16.98,1.4,11.89-1.12,20.68-7.07,22.8-8.57,4.83-3.42,7.04-6.4,8.08-5.71,1.47.98-1.35,8.35-4.85,13.73-1.58,2.43-4.4,6.66-9.77,10.02-4.72,2.95-9.01,3.72-12.42,4.31-13.14,2.24-23.64-2.28-26.69-3.64-3.32-1.48-5.9-3.09-7.64-4.29Z"/><path d="m248.66,621.18c-.37,1.52-.81,3.13-1.35,4.8-.76,2.38-1.59,4.55-2.44,6.5,2.19.47,5.43,1.06,9.38,1.37,5.09.39,12.99.92,21.8-1.99,2.22-.73,8.24-2.77,13.29-7.08,16.13-13.75,11.98-41.71,9.9-42.03-1.48-.23-1.45,13.52-12.7,24.95-.89.91-5.16,5.16-12.24,8.63-10.71,5.26-20.69,5.22-25.66,4.85Z"/><path d="m286.82,550.02c-2.52.37,2.29,17.12-7.29,31.66-3.79,5.75-8.61,9.43-11.43,11.55-7.66,5.79-15.19,8.48-20.03,9.79.53,1.93,1.03,4.31,1.25,7.05.26,3.22.08,6.03-.22,8.25,2.51-.29,6.04-.83,10.12-1.98,7.85-2.21,22.78-6.42,30.5-19.75,5.81-10.02,4.69-20.35,3.98-27.08-1.08-10.12-4.95-19.76-6.87-19.48Z"/><ellipse class="cls-2" cx="215.49" cy="568.95" rx="4.76" ry="29.26" transform="translate(-357.88 772.38) rotate(-88.79)"/><path d="m200.42,572.96c-.01.11-14.24-2.64-14.17-4.86.07-2.2,14.17-3.49,14.17-3.4,0,.01-.15.07-.29.1-.15.04-.28.04-.33.04-.2.01-.21,0-.38.02-.03,0-.03,0-.23.03-.12.02-.21.03-.23.03-.22.03-2.11.34-3.71.7-.49.11-.86.21-.95.23-.45.12-.78.21-1.07.29-.67.19-.87.27-1.02.33-.25.1-.43.19-.6.28-.3.15-.42.23-.48.28-.17.12-.29.21-.42.36-.14.18-.41.5-.45,1.03-.06.71.34,1.22.36,1.25.12.16.28.33.49.48.13.1.23.15.39.23.25.13.44.2.55.24.46.17.82.28.88.3.58.18.88.27,1.13.34,1.06.29,2.37.55,2.83.64,1.87.39,3.52,1,3.52,1.04Z"/><path d="m230.79,565.19c.01-.11,14.23,2.18,14.18,4.41-.04,2.22-14.13,4.06-14.16,3.72,0-.04.19-.12.53-.25.29-.11.55-.2.8-.27.8-.22,1.89-.31,1.89-.31.08,0,.13-.01.19-.02.34-.04.59-.1.66-.11.21-.05.69-.14,1.83-.31.52-.1,1.05-.2,1.57-.29.39-.09.71-.21.95-.31.53-.22.79-.41.89-.5.22-.18.37-.3.52-.55.09-.16.31-.54.31-1.08,0-.62-.28-1.03-.36-1.13-.12-.14-.28-.3-.49-.44-.13-.09-.23-.14-.39-.21-.25-.12-.44-.18-.56-.22-.46-.15-.82-.26-.88-.28-.58-.16-.88-.25-1.13-.31-1.06-.26-2.38-.5-2.83-.59-1.87-.35-3.52-.91-3.52-.95Z"/></svg>